name Walk1.mot
datacolumns 19
datarows 15
range 0.97100000 0.98500000
endheader

                time	   L_ground_force_vx	   L_ground_force_vy	   L_ground_force_vz	   L_ground_force_px	   L_ground_force_py	   L_ground_force_pz	   R_ground_force_vx	   R_ground_force_vy	   R_ground_force_vz	   R_ground_force_px	   R_ground_force_py	   R_ground_force_pz	   L_ground_torque_x	   L_ground_torque_y	   L_ground_torque_z	   R_ground_torque_x	   R_ground_torque_y	   R_ground_torque_z	
          0.97100000	          0.00000000	          0.00000000	          0.00000000	          0.00000000	          0.00000000	          0.00000000	          0.00000000	          0.00000000	          0.00000000	          0.00000000	          0.00000000	          0.00000000	          0.00000000	          0.00000000	          0.00000000	          0.00000000	          0.00000000	          0.00000000	
          0.97200000	          0.00000000	          0.00000000	          0.00000000	          0.00000000	          0.00000000	          0.00000000	          0.00000000	          0.00000000	          0.00000000	          0.00000000	          0.00000000	          0.00000000	          0.00000000	          0.00000000	          0.00000000	          0.00000000	          0.00000000	          0.00000000	
          0.97300000	          0.00000000	          0.00000000	          0.00000000	          0.00000000	          0.00000000	          0.00000000	          0.00000000	          0.00000000	          0.00000000	          0.00000000	          0.00000000	          0.00000000	          0.00000000	          0.00000000	          0.00000000	          0.00000000	          0.00000000	          0.00000000	
          0.97400000	          0.00000000	          0.00000000	          0.00000000	          0.00000000	          0.00000000	          0.00000000	          0.00000000	          0.00000000	          0.00000000	          0.00000000	          0.00000000	          0.00000000	          0.00000000	          0.00000000	          0.00000000	          0.00000000	          0.00000000	          0.00000000	
          0.97500000	          0.00000000	          0.00000000	          0.00000000	          0.00000000	          0.00000000	          0.00000000	         -2.67224290	         11.05007233	         -0.29488319	         -0.19148055	          0.00000000	          0.04330551	          0.00000000	          0.00000000	          0.00000000	          0.00000000	          0.39056111	          0.00000000	
          0.97600000	          0.00000000	          0.00000000	          0.00000000	          0.00000000	          0.00000000	          0.00000000	         -3.35878416	         20.45941829	         -0.58244050	         -0.20599492	          0.00000000	          0.00177319	          0.00000000	          0.00000000	          0.00000000	          0.00000000	          0.35178529	          0.00000000	
          0.97700000	          0.00000000	          0.00000000	          0.00000000	          0.00000000	          0.00000000	          0.00000000	         -4.09136768	         35.21757099	         -1.01965938	         -0.21669800	          0.00000000	         -0.02892831	          0.00000000	          0.00000000	          0.00000000	          0.00000000	          0.30932634	          0.00000000	
          0.97800000	          0.00000000	          0.00000000	          0.00000000	          0.00000000	          0.00000000	          0.00000000	         -5.21299708	         57.98311683	         -1.62240759	         -0.22423124	          0.00000000	         -0.05036911	          0.00000000	          0.00000000	          0.00000000	          0.00000000	          0.29889374	          0.00000000	
          0.97900000	          0.00000000	          0.00000000	          0.00000000	          0.00000000	          0.00000000	          0.00000000	         -7.05453312	         91.41809931	         -2.35378447	         -0.22918417	          0.00000000	         -0.06416003	          0.00000000	          0.00000000	          0.00000000	          0.00000000	          0.33197847	          0.00000000	
          0.98000000	          0.00000000	          0.00000000	          0.00000000	          0.00000000	          0.00000000	          0.00000000	         -9.71540951	        136.85070533	         -3.14396545	         -0.23229195	          0.00000000	         -0.07253993	          0.00000000	          0.00000000	          0.00000000	          0.00000000	          0.40338267	          0.00000000	
          0.98100000	          0.00000000	          0.00000000	          0.00000000	          0.00000000	          0.00000000	          0.00000000	        -12.96582714	        192.88369422	         -3.95529943	         -0.23418903	          0.00000000	         -0.07745480	          0.00000000	          0.00000000	          0.00000000	          0.00000000	          0.50625456	          0.00000000	
          0.98200000	          0.00000000	          0.00000000	          0.00000000	          0.00000000	          0.00000000	          0.00000000	        -16.32090449	        254.66057681	         -4.81984551	         -0.23532171	          0.00000000	         -0.08021592	          0.00000000	          0.00000000	          0.00000000	          0.00000000	          0.63378306	          0.00000000	
          0.98300000	          0.00000000	          0.00000000	          0.00000000	          0.00000000	          0.00000000	          0.00000000	        -19.27362484	        314.69240687	         -5.81007022	         -0.23595665	          0.00000000	         -0.08164373	          0.00000000	          0.00000000	          0.00000000	          0.00000000	          0.76788600	          0.00000000	
          0.98400000	          0.00000000	          0.00000000	          0.00000000	          0.00000000	          0.00000000	          0.00000000	        -21.52170426	        365.30023749	         -7.00332452	         -0.23622850	          0.00000000	         -0.08227322	          0.00000000	          0.00000000	          0.00000000	          0.00000000	          0.87604103	          0.00000000	
          0.98500000	          0.00000000	          0.00000000	          0.00000000	          0.00000000	          0.00000000	          0.00000000	        -23.03066446	        401.35769635	         -8.48741441	         -0.23620202	          0.00000000	         -0.08246277	          0.00000000	          0.00000000	          0.00000000	          0.00000000	          0.93206547	          0.00000000	
